<?xml version="1.0" encoding="UTF-8" standalone="no"?>
<!-- Created with Bouml (http://bouml.free.fr/) -->
<!DOCTYPE svg PUBLIC "-//W3C//DTD SVG 1.1//EN" "http://www.w3.org/Graphics/SVG/1.1/DTD/svg11.dtd">
<svg width="881" height="1268" version="1.1" xmlns="http://www.w3.org/2000/svg">
<g>
	<rect fill="#808080" stroke="none" stroke-opacity="1" x="743" y="140" width="3" height="43" />
	<rect fill="#808080" stroke="none" stroke-opacity="1" x="669" y="180" width="77" height="3" />
	<rect fill="#ffffc0" stroke="black" stroke-width="1" stroke-opacity="1" x="665" y="136" width="78" height="44" />
	<text font-family="Helvetica" font-size="10" fill="#000000" xml:space="preserve" font-weight="bold" text-anchor="middle" x="704" y="149">GUILauncher</text>
	<line stroke="black" stroke-opacity="1" x1="665" y1="154" x2="743" y2="154" />
	<line stroke="black" stroke-opacity="1" x1="665" y1="162" x2="743" y2="162" />
	<text font-family="Helvetica" font-size="10" fill="#000000" xml:space="preserve" text-decoration="underline" x="669" y="175">main()</text>
</g>
<g>
	<rect fill="#808080" stroke="none" stroke-opacity="1" x="531" y="159" width="3" height="133" />
	<rect fill="#808080" stroke="none" stroke-opacity="1" x="437" y="289" width="97" height="3" />
	<rect fill="#ffffc0" stroke="black" stroke-width="1" stroke-opacity="1" x="433" y="155" width="98" height="134" />
	<text font-family="Helvetica" font-size="10" fill="#000000" xml:space="preserve" font-weight="bold" text-anchor="middle" x="482" y="168">Game</text>
	<line stroke="black" stroke-opacity="1" x1="433" y1="173" x2="531" y2="173" />
	<text font-family="Helvetica" font-size="10" fill="#000000" xml:space="preserve" x="437" y="186">turnsNumber</text>
	<line stroke="black" stroke-opacity="1" x1="433" y1="191" x2="531" y2="191" />
	<text font-family="Helvetica" font-size="10" fill="#000000" xml:space="preserve" x="437" y="204">Game()</text>
	<text font-family="Helvetica" font-size="10" fill="#000000" xml:space="preserve" x="437" y="220">chooseDeck()</text>
	<text font-family="Helvetica" font-size="10" fill="#000000" xml:space="preserve" x="437" y="236">play()</text>
	<text font-family="Helvetica" font-size="10" fill="#000000" xml:space="preserve" x="437" y="252">nextTurn()</text>
	<text font-family="Helvetica" font-size="10" fill="#000000" xml:space="preserve" x="437" y="268">manaIncrement()</text>
	<text font-family="Helvetica" font-size="10" fill="#000000" xml:space="preserve" x="437" y="284">searchVictorious()</text>
</g>
<g>
	<line stroke="black" stroke-opacity="1" x1="535" y1="207" x2="542" y2="211" />
	<line stroke="black" stroke-opacity="1" x1="535" y1="207" x2="539" y2="199" />
	<line stroke="black" stroke-opacity="1" x1="664" y1="171" x2="535" y2="207" />
</g>
<g>
	<rect fill="#808080" stroke="none" stroke-opacity="1" x="308" y="799" width="3" height="181" />
	<rect fill="#808080" stroke="none" stroke-opacity="1" x="36" y="977" width="275" height="3" />
	<rect fill="#ffffc0" stroke="black" stroke-width="1" stroke-opacity="1" x="32" y="795" width="276" height="182" />
	<text font-family="Helvetica" font-size="10" fill="#000000" xml:space="preserve" font-weight="bold" text-anchor="middle" x="170" y="808">Board</text>
	<line stroke="black" stroke-opacity="1" x1="32" y1="813" x2="308" y2="813" />
	<text font-family="Helvetica" font-size="10" fill="#000000" xml:space="preserve" text-decoration="underline" x="36" y="826">MAXIMAL_INVOCATION_NUMBER</text>
	<text font-family="Helvetica" font-size="10" fill="#000000" xml:space="preserve" x="36" y="842">numberOfLaidInvocations</text>
	<line stroke="black" stroke-opacity="1" x1="32" y1="847" x2="308" y2="847" />
	<text font-family="Helvetica" font-size="10" fill="#000000" xml:space="preserve" x="36" y="860">Board()</text>
	<text font-family="Helvetica" font-size="10" fill="#000000" xml:space="preserve" x="36" y="876">getInvocationsNumber()</text>
	<text font-family="Helvetica" font-size="10" fill="#000000" xml:space="preserve" x="36" y="892">getInvocationNumber()</text>
	<text font-family="Helvetica" font-size="10" fill="#000000" xml:space="preserve" x="36" y="908">getInvocation()</text>
	<text font-family="Helvetica" font-size="10" fill="#000000" xml:space="preserve" x="36" y="924">addInvocation()</text>
	<text font-family="Helvetica" font-size="10" fill="#000000" xml:space="preserve" x="36" y="940">removeInvocation()</text>
	<text font-family="Helvetica" font-size="10" fill="#000000" xml:space="preserve" x="36" y="956">thereIsAtLeastOneAvantGardeInvocationOnTheBoard()</text>
	<text font-family="Helvetica" font-size="10" fill="#000000" xml:space="preserve" x="36" y="972">returnBoard()</text>
</g>
<g>
	<text font-family="Helvetica" font-size="10" fill="#000000" xml:space="preserve" x="343" y="957">boardCards</text>
</g>
<g>
	<text font-family="Helvetica" font-size="10" fill="#000000" xml:space="preserve" x="438" y="627">&lt;&lt;LinkedList&gt;&gt;</text>
</g>
<g>
	<text font-family="Helvetica" font-size="10" fill="#000000" xml:space="preserve" x="516" y="590">hand</text>
</g>
<g>
	<text font-family="Helvetica" font-size="10" fill="#000000" xml:space="preserve" x="517" y="555">deck</text>
</g>
<g>
	<text font-family="Helvetica" font-size="10" fill="#000000" xml:space="preserve" x="272" y="433">deck</text>
</g>
<g>
	<text font-family="Helvetica" font-size="10" fill="#000000" xml:space="preserve" x="173" y="787">board</text>
</g>
<g>
	<text font-family="Helvetica" font-size="10" fill="#000000" xml:space="preserve" x="218" y="241">player1</text>
</g>
<g>
	<text font-family="Helvetica" font-size="10" fill="#000000" xml:space="preserve" x="265" y="234">player2</text>
</g>
<g>
	<text font-family="Helvetica" font-size="10" fill="#000000" xml:space="preserve" x="461" y="354">playerEntryInterface1</text>
</g>
<g>
	<text font-family="Helvetica" font-size="10" fill="#000000" xml:space="preserve" x="466" y="338">playerEntryInterface2</text>
</g>
<g>
	<text font-family="Helvetica" font-size="10" fill="#000000" xml:space="preserve" x="263" y="372">playerEntryInterface</text>
</g>
<g>
	<text font-family="Helvetica" font-size="10" fill="#000000" xml:space="preserve" x="437" y="93">playerDisplayInterface1</text>
</g>
<g>
	<text font-family="Helvetica" font-size="10" fill="#000000" xml:space="preserve" x="443" y="113">playerDisplayInterface2</text>
</g>
<g>
	<text font-family="Helvetica" font-size="10" fill="#000000" xml:space="preserve" x="240" y="61">playerDisplayInterface</text>
</g>
<g>
	<text font-family="Helvetica" font-size="10" fill="#000000" xml:space="preserve" x="263" y="575">hand</text>
</g>
<g>
	<rect fill="#808080" stroke="none" stroke-opacity="1" x="663" y="754" width="3" height="501" />
	<rect fill="#808080" stroke="none" stroke-opacity="1" x="415" y="1252" width="251" height="3" />
	<rect fill="#ffffc0" stroke="black" stroke-width="1" stroke-opacity="1" x="411" y="750" width="252" height="502" />
	<text font-family="Helvetica" font-size="10" fill="#000000" xml:space="preserve" font-weight="bold" text-anchor="middle" x="537" y="763">Invocation</text>
	<line stroke="black" stroke-opacity="1" x1="411" y1="768" x2="663" y2="768" />
	<text font-family="Helvetica" font-size="10" fill="#000000" xml:space="preserve" x="415" y="781">attackPoints</text>
	<text font-family="Helvetica" font-size="10" fill="#000000" xml:space="preserve" x="415" y="797">defensePoints</text>
	<text font-family="Helvetica" font-size="10" fill="#000000" xml:space="preserve" x="415" y="813">currentDefensePoints</text>
	<text font-family="Helvetica" font-size="10" fill="#000000" xml:space="preserve" x="415" y="829">doNotDoHisFirstTurn</text>
	<text font-family="Helvetica" font-size="10" fill="#000000" xml:space="preserve" x="415" y="845">hasAttacked</text>
	<text font-family="Helvetica" font-size="10" fill="#000000" xml:space="preserve" x="415" y="861">capacity</text>
	<text font-family="Helvetica" font-size="10" fill="#000000" xml:space="preserve" x="415" y="877">criDeGuerreEffect</text>
	<text font-family="Helvetica" font-size="10" fill="#000000" xml:space="preserve" x="415" y="893">criDeGuerreTarget</text>
	<text font-family="Helvetica" font-size="10" fill="#000000" xml:space="preserve" x="415" y="909">conferationEffect</text>
	<text font-family="Helvetica" font-size="10" fill="#000000" xml:space="preserve" x="415" y="925">hasUsedHisSecondAttack_Enchainement</text>
	<line stroke="black" stroke-opacity="1" x1="411" y1="930" x2="663" y2="930" />
	<text font-family="Helvetica" font-size="10" fill="#000000" xml:space="preserve" x="415" y="943">Invocation()</text>
	<text font-family="Helvetica" font-size="10" fill="#000000" xml:space="preserve" x="415" y="959">doHisFirstTurn()</text>
	<text font-family="Helvetica" font-size="10" fill="#000000" xml:space="preserve" x="415" y="975">makeOperational()</text>
	<text font-family="Helvetica" font-size="10" fill="#000000" xml:space="preserve" x="415" y="991">makeInactive()</text>
	<text font-family="Helvetica" font-size="10" fill="#000000" xml:space="preserve" x="415" y="1007">getCurrentDefensePoints()</text>
	<text font-family="Helvetica" font-size="10" fill="#000000" xml:space="preserve" x="415" y="1023">getAttackPoints()</text>
	<text font-family="Helvetica" font-size="10" fill="#000000" xml:space="preserve" x="415" y="1039">getCapacity()</text>
	<text font-family="Helvetica" font-size="10" fill="#000000" xml:space="preserve" x="415" y="1055">updateLifePoints()</text>
	<text font-family="Helvetica" font-size="10" fill="#000000" xml:space="preserve" x="415" y="1071">doNotDoHisFirstTurn()</text>
	<text font-family="Helvetica" font-size="10" fill="#000000" xml:space="preserve" x="415" y="1087">changeLife()</text>
	<text font-family="Helvetica" font-size="10" fill="#000000" xml:space="preserve" x="415" y="1103">changeAttack()</text>
	<text font-family="Helvetica" font-size="10" fill="#000000" xml:space="preserve" x="415" y="1119">haveAttacked()</text>
	<text font-family="Helvetica" font-size="10" fill="#000000" xml:space="preserve" x="415" y="1135">returnCapacity()</text>
	<text font-family="Helvetica" font-size="10" fill="#000000" xml:space="preserve" x="415" y="1151">returnConferationCapacity()</text>
	<text font-family="Helvetica" font-size="10" fill="#000000" xml:space="preserve" x="415" y="1167">changeHasUsedHisSecondAttack_Enchainement()</text>
	<text font-family="Helvetica" font-size="10" fill="#000000" xml:space="preserve" x="415" y="1183">returnHasUsedHisSecondAttack_Enchainement()</text>
	<text font-family="Helvetica" font-size="10" fill="#000000" xml:space="preserve" x="415" y="1199">affectTheSpecialCapacity()</text>
	<text font-family="Helvetica" font-size="10" fill="#000000" xml:space="preserve" x="415" y="1215">returnCriDeGuerreEffect()</text>
	<text font-family="Helvetica" font-size="10" fill="#000000" xml:space="preserve" x="415" y="1231">returnCriDeGuerreTarget()</text>
	<text font-family="Helvetica" font-size="10" fill="#000000" xml:space="preserve" x="415" y="1247">getCardRepresentation()</text>
</g>
<g>
	<line stroke="black" stroke-opacity="1" x1="410" y1="961" x2="406" y2="953" />
	<line stroke="black" stroke-opacity="1" x1="410" y1="961" x2="402" y2="964" />
	<line stroke="black" stroke-opacity="1" x1="312" y1="930" x2="410" y2="961" />
</g>
<g>
	<text font-family="Helvetica" font-size="10" fill="#000000" xml:space="preserve" x="329" y="980">&lt;&lt;LinkedList&gt;&gt;</text>
</g>
<g>
	<rect fill="#808080" stroke="none" stroke-opacity="1" x="677" y="490" width="3" height="197" />
	<rect fill="#808080" stroke="none" stroke-opacity="1" x="555" y="684" width="125" height="3" />
	<rect fill="#ffffc0" stroke="black" stroke-width="1" stroke-opacity="1" x="551" y="486" width="126" height="198" />
	<text font-family="Helvetica" font-size="10" fill="#000000" xml:space="preserve" font-weight="bold" font-style="italic" text-anchor="middle" x="614" y="499">Card</text>
	<line stroke="black" stroke-opacity="1" x1="551" y1="504" x2="677" y2="504" />
	<text font-family="Helvetica" font-size="10" fill="#000000" xml:space="preserve" x="555" y="517">name</text>
	<text font-family="Helvetica" font-size="10" fill="#000000" xml:space="preserve" x="555" y="533">imagePath</text>
	<text font-family="Helvetica" font-size="10" fill="#000000" xml:space="preserve" x="555" y="549">description</text>
	<text font-family="Helvetica" font-size="10" fill="#000000" xml:space="preserve" x="555" y="565">manaCost</text>
	<line stroke="black" stroke-opacity="1" x1="551" y1="570" x2="677" y2="570" />
	<text font-family="Helvetica" font-size="10" fill="#000000" xml:space="preserve" x="555" y="583">Card()</text>
	<text font-family="Helvetica" font-size="10" fill="#000000" xml:space="preserve" x="555" y="599">getName()</text>
	<text font-family="Helvetica" font-size="10" fill="#000000" xml:space="preserve" x="555" y="615">getImagePath()</text>
	<text font-family="Helvetica" font-size="10" fill="#000000" xml:space="preserve" x="555" y="631">getManaCost()</text>
	<text font-family="Helvetica" font-size="10" fill="#000000" xml:space="preserve" x="555" y="647">getCardRepresentation()</text>
	<text font-family="Helvetica" font-size="10" fill="#000000" xml:space="preserve" x="555" y="663">equals()</text>
	<text font-family="Helvetica" font-size="10" fill="#000000" xml:space="preserve" x="555" y="679">hashCode()</text>
</g>
<g>
	<line stroke="black" stroke-opacity="1" x1="583" y1="749" x2="592" y2="693" />
	<line stroke="black" stroke-opacity="1" x1="594" y1="688" x2="587" y2="692" />
	<line stroke="black" stroke-opacity="1" x1="594" y1="688" x2="598" y2="694" />
	<line stroke="black" stroke-opacity="1" x1="587" y1="692" x2="598" y2="694" />
</g>
<g>
	<rect fill="#808080" stroke="none" stroke-opacity="1" x="402" y="436" width="3" height="85" />
	<rect fill="#808080" stroke="none" stroke-opacity="1" x="306" y="518" width="99" height="3" />
	<rect fill="#ffffc0" stroke="black" stroke-width="1" stroke-opacity="1" x="302" y="432" width="100" height="86" />
	<text font-family="Helvetica" font-size="10" fill="#000000" xml:space="preserve" font-weight="bold" text-anchor="middle" x="352" y="445">Deck</text>
	<line stroke="black" stroke-opacity="1" x1="302" y1="450" x2="402" y2="450" />
	<text font-family="Helvetica" font-size="10" fill="#000000" xml:space="preserve" x="306" y="463">numberOfCards</text>
	<line stroke="black" stroke-opacity="1" x1="302" y1="468" x2="402" y2="468" />
	<text font-family="Helvetica" font-size="10" fill="#000000" xml:space="preserve" x="306" y="481">Deck()</text>
	<text font-family="Helvetica" font-size="10" fill="#000000" xml:space="preserve" x="306" y="497">retrieveHeadCard()</text>
	<text font-family="Helvetica" font-size="10" fill="#000000" xml:space="preserve" x="306" y="513">toString()</text>
</g>
<g>
	<line stroke="black" stroke-opacity="1" x1="550" y1="558" x2="546" y2="550" />
	<line stroke="black" stroke-opacity="1" x1="550" y1="558" x2="542" y2="561" />
	<line stroke="black" stroke-opacity="1" x1="406" y1="498" x2="550" y2="558" />
</g>
<g>
	<text font-family="Helvetica" font-size="10" fill="#000000" xml:space="preserve" x="438" y="511">&lt;&lt;LinkedList&gt;&gt;</text>
</g>
<g>
	<rect fill="#808080" stroke="none" stroke-opacity="1" x="204" y="17" width="3" height="485" />
	<rect fill="#808080" stroke="none" stroke-opacity="1" x="38" y="499" width="169" height="3" />
	<rect fill="#ffffc0" stroke="black" stroke-width="1" stroke-opacity="1" x="34" y="13" width="170" height="486" />
	<text font-family="Helvetica" font-size="10" fill="#000000" xml:space="preserve" font-weight="bold" text-anchor="middle" x="119" y="26">Player</text>
	<line stroke="black" stroke-opacity="1" x1="34" y1="31" x2="204" y2="31" />
	<text font-family="Helvetica" font-size="10" fill="#000000" xml:space="preserve" text-decoration="underline" x="38" y="44">INITIAL_LIFE_POINT</text>
	<text font-family="Helvetica" font-size="10" fill="#000000" xml:space="preserve" text-decoration="underline" x="38" y="60">MANA_INITIAL_NUMBER</text>
	<text font-family="Helvetica" font-size="10" fill="#000000" xml:space="preserve" text-decoration="underline" x="38" y="76">MAXIMAL_MANA_NUMBER</text>
	<text font-family="Helvetica" font-size="10" fill="#000000" xml:space="preserve" text-decoration="underline" x="38" y="92">INITIAL_CARD_NUMBER</text>
	<text font-family="Helvetica" font-size="10" fill="#000000" xml:space="preserve" text-decoration="underline" x="38" y="108">NUMBER_OF_CREATED_PLAYER</text>
	<text font-family="Helvetica" font-size="10" fill="#000000" xml:space="preserve" x="38" y="124">healthPoint</text>
	<text font-family="Helvetica" font-size="10" fill="#000000" xml:space="preserve" x="38" y="140">mana</text>
	<text font-family="Helvetica" font-size="10" fill="#000000" xml:space="preserve" x="38" y="156">playerNumber</text>
	<line stroke="black" stroke-opacity="1" x1="34" y1="161" x2="204" y2="161" />
	<text font-family="Helvetica" font-size="10" fill="#000000" xml:space="preserve" x="38" y="174">Player()</text>
	<text font-family="Helvetica" font-size="10" fill="#000000" xml:space="preserve" x="38" y="190">defineMana()</text>
	<text font-family="Helvetica" font-size="10" fill="#000000" xml:space="preserve" x="38" y="206">getLife()</text>
	<text font-family="Helvetica" font-size="10" fill="#000000" xml:space="preserve" x="38" y="222">selectAction()</text>
	<text font-family="Helvetica" font-size="10" fill="#000000" xml:space="preserve" x="38" y="238">drawACard()</text>
	<text font-family="Helvetica" font-size="10" fill="#000000" xml:space="preserve" x="38" y="254">poseInvocation()</text>
	<text font-family="Helvetica" font-size="10" fill="#000000" xml:space="preserve" x="38" y="270">useSpell()</text>
	<text font-family="Helvetica" font-size="10" fill="#000000" xml:space="preserve" x="38" y="286">addLifePoints()</text>
	<text font-family="Helvetica" font-size="10" fill="#000000" xml:space="preserve" x="38" y="302">defineOpponent()</text>
	<text font-family="Helvetica" font-size="10" fill="#000000" xml:space="preserve" x="38" y="318">attack()</text>
	<text font-family="Helvetica" font-size="10" fill="#000000" xml:space="preserve" x="38" y="334">getMana()</text>
	<text font-family="Helvetica" font-size="10" fill="#000000" xml:space="preserve" x="38" y="350">updateInvocationStates()</text>
	<text font-family="Helvetica" font-size="10" fill="#000000" xml:space="preserve" x="38" y="366">applyPacteDiabolique()</text>
	<text font-family="Helvetica" font-size="10" fill="#000000" xml:space="preserve" x="38" y="382">getCardInHand()</text>
	<text font-family="Helvetica" font-size="10" fill="#000000" xml:space="preserve" x="38" y="398">getCardOnBoard()</text>
	<text font-family="Helvetica" font-size="10" fill="#000000" xml:space="preserve" x="38" y="414">getNumberOfCardsInTheHand()</text>
	<text font-family="Helvetica" font-size="10" fill="#000000" xml:space="preserve" x="38" y="430">getNumberOfCardOnTheBoard()</text>
	<text font-family="Helvetica" font-size="10" fill="#000000" xml:space="preserve" x="38" y="446">getOpponent()</text>
	<text font-family="Helvetica" font-size="10" fill="#000000" xml:space="preserve" x="38" y="462">getPlayerNumber()</text>
	<text font-family="Helvetica" font-size="10" fill="#000000" xml:space="preserve" x="38" y="478">changeOpponentLife()</text>
	<text font-family="Helvetica" font-size="10" fill="#000000" xml:space="preserve" x="38" y="494">toString()</text>
</g>
<g>
	<line stroke="black" stroke-opacity="1" x1="305" y1="431" x2="304" y2="422" />
	<line stroke="black" stroke-opacity="1" x1="305" y1="431" x2="296" y2="431" />
	<line stroke="black" stroke-opacity="1" x1="208" y1="339" x2="305" y2="431" />
</g>
<g>
	<line stroke="black" stroke-opacity="1" x1="163" y1="794" x2="168" y2="787" />
	<line stroke="black" stroke-opacity="1" x1="163" y1="794" x2="156" y2="788" />
	<line stroke="black" stroke-opacity="1" x1="139" y1="503" x2="163" y2="794" />
</g>
<g>
	<line stroke="black" stroke-opacity="1" x1="208" y1="248" x2="214" y2="253" />
	<line stroke="black" stroke-opacity="1" x1="208" y1="248" x2="213" y2="241" />
	<line stroke="black" stroke-opacity="1" x1="432" y1="228" x2="208" y2="248" />
</g>
<g>
	<line stroke="black" stroke-opacity="1" x1="208" y1="248" x2="214" y2="253" />
	<line stroke="black" stroke-opacity="1" x1="208" y1="248" x2="213" y2="241" />
	<line stroke="black" stroke-opacity="1" x1="432" y1="228" x2="208" y2="248" />
</g>
<g>
	<ellipse fill="#ffffc0" stroke="black" stroke-width="1" stroke-opacity="1" cx="445" cy="372" rx="10" ry="10" />
	<text font-family="Helvetica" font-size="10" fill="#000000" xml:space="preserve" font-weight="bold" text-anchor="middle" x="445" y="395">PlayerEntryInterface</text>
	<line stroke="black" stroke-opacity="1" x1="386" y1="400" x2="504" y2="400" />
</g>
<g>
	<ellipse fill="#ffffc0" stroke="black" stroke-width="1" stroke-opacity="1" cx="415" cy="31" rx="10" ry="10" />
	<text font-family="Helvetica" font-size="10" fill="#000000" xml:space="preserve" font-weight="bold" text-anchor="middle" x="415" y="54">PlayerDisplayInterface</text>
	<line stroke="black" stroke-opacity="1" x1="350" y1="59" x2="480" y2="59" />
</g>
<g>
	<line stroke="black" stroke-opacity="1" x1="450" y1="361" x2="457" y2="356" />
	<line stroke="black" stroke-opacity="1" x1="450" y1="361" x2="445" y2="353" />
	<line stroke="black" stroke-opacity="1" x1="466" y1="293" x2="450" y2="361" />
</g>
<g>
	<line stroke="black" stroke-opacity="1" x1="450" y1="361" x2="457" y2="356" />
	<line stroke="black" stroke-opacity="1" x1="450" y1="361" x2="445" y2="353" />
	<line stroke="black" stroke-opacity="1" x1="466" y1="293" x2="450" y2="361" />
</g>
<g>
	<line stroke="black" stroke-opacity="1" x1="385" y1="364" x2="381" y2="356" />
	<line stroke="black" stroke-opacity="1" x1="385" y1="364" x2="377" y2="367" />
	<line stroke="black" stroke-opacity="1" x1="208" y1="292" x2="385" y2="364" />
</g>
<g>
	<line stroke="black" stroke-opacity="1" x1="425" y1="75" x2="421" y2="82" />
	<line stroke="black" stroke-opacity="1" x1="425" y1="75" x2="432" y2="78" />
	<line stroke="black" stroke-opacity="1" x1="455" y1="154" x2="425" y2="75" />
</g>
<g>
	<line stroke="black" stroke-opacity="1" x1="425" y1="75" x2="421" y2="82" />
	<line stroke="black" stroke-opacity="1" x1="425" y1="75" x2="432" y2="78" />
	<line stroke="black" stroke-opacity="1" x1="455" y1="154" x2="425" y2="75" />
</g>
<g>
	<line stroke="black" stroke-opacity="1" x1="358" y1="75" x2="349" y2="73" />
	<line stroke="black" stroke-opacity="1" x1="358" y1="75" x2="356" y2="83" />
	<line stroke="black" stroke-opacity="1" x1="208" y1="193" x2="358" y2="75" />
</g>
<g>
	<rect fill="#808080" stroke="none" stroke-opacity="1" x="394" y="587" width="3" height="149" />
	<rect fill="#808080" stroke="none" stroke-opacity="1" x="184" y="733" width="213" height="3" />
	<rect fill="#ffffc0" stroke="black" stroke-width="1" stroke-opacity="1" x="180" y="583" width="214" height="150" />
	<text font-family="Helvetica" font-size="10" fill="#000000" xml:space="preserve" font-weight="bold" text-anchor="middle" x="287" y="596">Hand</text>
	<line stroke="black" stroke-opacity="1" x1="180" y1="601" x2="394" y2="601" />
	<text font-family="Helvetica" font-size="10" fill="#000000" xml:space="preserve" text-decoration="underline" x="184" y="614">MAXIMAL_NUMBER_OF_CARDS_IN_HAND</text>
	<text font-family="Helvetica" font-size="10" fill="#000000" xml:space="preserve" x="184" y="630">cardsNumberInHand</text>
	<line stroke="black" stroke-opacity="1" x1="180" y1="635" x2="394" y2="635" />
	<text font-family="Helvetica" font-size="10" fill="#000000" xml:space="preserve" x="184" y="648">Hand()</text>
	<text font-family="Helvetica" font-size="10" fill="#000000" xml:space="preserve" x="184" y="664">addACard()</text>
	<text font-family="Helvetica" font-size="10" fill="#000000" xml:space="preserve" x="184" y="680">removeCard()</text>
	<text font-family="Helvetica" font-size="10" fill="#000000" xml:space="preserve" x="184" y="696">getCard()</text>
	<text font-family="Helvetica" font-size="10" fill="#000000" xml:space="preserve" x="184" y="712">getNumberOfCardsInHand()</text>
	<text font-family="Helvetica" font-size="10" fill="#000000" xml:space="preserve" x="184" y="728">toString()</text>
</g>
<g>
	<rect fill="#808080" stroke="none" stroke-opacity="1" x="865" y="706" width="3" height="117" />
	<rect fill="#808080" stroke="none" stroke-opacity="1" x="743" y="820" width="125" height="3" />
	<rect fill="#ffffc0" stroke="black" stroke-width="1" stroke-opacity="1" x="739" y="702" width="126" height="118" />
	<text font-family="Helvetica" font-size="10" fill="#000000" xml:space="preserve" font-weight="bold" text-anchor="middle" x="802" y="715">Spell</text>
	<line stroke="black" stroke-opacity="1" x1="739" y1="720" x2="865" y2="720" />
	<text font-family="Helvetica" font-size="10" fill="#000000" xml:space="preserve" x="743" y="733">effect</text>
	<text font-family="Helvetica" font-size="10" fill="#000000" xml:space="preserve" x="743" y="749">spellTarget</text>
	<line stroke="black" stroke-opacity="1" x1="739" y1="754" x2="865" y2="754" />
	<text font-family="Helvetica" font-size="10" fill="#000000" xml:space="preserve" x="743" y="767">Spell()</text>
	<text font-family="Helvetica" font-size="10" fill="#000000" xml:space="preserve" x="743" y="783">returnSpellTarget()</text>
	<text font-family="Helvetica" font-size="10" fill="#000000" xml:space="preserve" x="743" y="799">returnEffect()</text>
	<text font-family="Helvetica" font-size="10" fill="#000000" xml:space="preserve" x="743" y="815">getCardRepresentation()</text>
</g>
<g>
	<line stroke="black" stroke-opacity="1" x1="255" y1="582" x2="258" y2="574" />
	<line stroke="black" stroke-opacity="1" x1="255" y1="582" x2="247" y2="578" />
	<line stroke="black" stroke-opacity="1" x1="208" y1="468" x2="255" y2="582" />
</g>
<g>
	<line stroke="black" stroke-opacity="1" x1="550" y1="599" x2="542" y2="594" />
	<line stroke="black" stroke-opacity="1" x1="550" y1="599" x2="545" y2="606" />
	<line stroke="black" stroke-opacity="1" x1="398" y1="634" x2="550" y2="599" />
</g>
<g>
	<line stroke="black" stroke-opacity="1" x1="738" y1="701" x2="685" y2="652" />
	<line stroke="black" stroke-opacity="1" x1="681" y1="648" x2="681" y2="656" />
	<line stroke="black" stroke-opacity="1" x1="681" y1="648" x2="689" y2="647" />
	<line stroke="black" stroke-opacity="1" x1="681" y1="656" x2="689" y2="647" />
</g>
</svg>
